<?xml version="1.0" encoding="UTF-8" standalone="no"?>
<svg
   width="856"
   height="539.79999"
   version="1.1"
   id="svg222"
   sodipodi:docname="background.svg"
   inkscape:version="1.2.2 (b0a8486, 2022-12-01)"
   xmlns:inkscape="http://www.inkscape.org/namespaces/inkscape"
   xmlns:sodipodi="http://sodipodi.sourceforge.net/DTD/sodipodi-0.dtd"
   xmlns="http://www.w3.org/2000/svg"
   xmlns:svg="http://www.w3.org/2000/svg">
  <defs
     id="defs226" />
  <sodipodi:namedview
     id="namedview224"
     pagecolor="#ffffff"
     bordercolor="#000000"
     borderopacity="0.25"
     inkscape:showpageshadow="2"
     inkscape:pageopacity="0.0"
     inkscape:pagecheckerboard="0"
     inkscape:deskcolor="#d1d1d1"
     showgrid="false"
     inkscape:zoom="0.60915047"
     inkscape:cx="352.12974"
     inkscape:cy="286.46452"
     inkscape:window-width="1280"
     inkscape:window-height="747"
     inkscape:window-x="0"
     inkscape:window-y="25"
     inkscape:window-maximized="0"
     inkscape:current-layer="svg222" />
  <path
     id="path6161"
     style="fill:none;stroke-width:1.5;stroke-opacity:1;stroke:#bfbfbf"
     d="M 104.63373 -0.11777437 A 27.9 27.9 0 0 1 105 3 C 105 8.4999945 102.5 15.500004 99 19.7 A 28.6 28.6 0 0 1 83.6 28 C 78.300005 28.999999 71.999995 27.699997 67.5 25.1 A 26 26 0 0 1 56.7 12.3 A 32.6 32.6 0 0 1 55.156734 -0.030399851 " />
  <path
     id="path6155"
     style="fill:none;stroke-width:1.5;stroke-opacity:1;stroke:#bfbfbf"
     d="M 104.39669 -0.05809618 C 104.58214 4.9883507 103.19077 10.918451 101.1 15.1 C 98.600002 20.099995 94.099995 24.800002 89.2 26.8 A 28 28 0 0 1 72 27.2 A 24.4 24.4 0 0 1 59.5 17 A 30.8 30.8 0 0 1 55.678677 0.001840629 " />
  <path
     id="path6151"
     style="fill:none;stroke-width:1.5;stroke-opacity:1;stroke:#bfbfbf"
     d="M 31.6 201.8 A 26.4 26.4 0 0 1 49.1 203.2 C 53.999995 205.7 58.700002 211.8 60.7 216.8 C 62.699998 221.79999 62.699998 228.1 60.9 233 C 59.200002 237.99999 54.899996 243.4 50.4 246.2 A 29.5 29.5 0 0 1 33.2 249.9 A 27.3 27.3 0 0 1 18.2 242.3 A 26.1 26.1 0 0 1 11.2 227.1 A 27.4 27.4 0 0 1 16.2 210.6 C 19.399997 206.5 27.900003 203.6 30.4 202.2 C 32.999997 200.8 31.1 201.7 31.4 202 " />
  <path
     id="path6149"
     style="fill:none;stroke-width:1.5;stroke-opacity:1;stroke:#bfbfbf"
     d="M 43.1 201.8 A 26 26 0 0 1 57.4 210.9 A 27.5 27.5 0 0 1 61.9 227.4 A 26.9 26.9 0 0 1 55.1 242.9 C 51.400004 246.7 45.099995 249.8 39.7 250.4 C 34.300005 251 27.099995 249.4 22.5 246.4 A 27 27 0 0 1 12.5 232.5 C 11.000002 227.40001 11.400002 220.5 13.5 215.7 A 26 26 0 0 1 25.8 203.7 C 30.799995 201.5 40.800003 202.4 44.1 202.3 C 47.399997 202.3 45.9 203.1 45.7 203.4 " />
  <path
     id="path6147"
     style="fill:none;stroke-width:1.5;stroke-opacity:1;stroke:#bfbfbf"
     d="M 249.9 176.5 C 255.29999 174.2 259.50001 171.29999 270.4 165.7 " />
  <path
     id="path6145"
     style="fill:none;stroke-width:1.5;stroke-opacity:1;stroke:#bfbfbf"
     d="M 250.7 175.8 A 148 148 0 0 0 269.9 165.8 " />
  <path
     id="path6143"
     style="fill:none;stroke-width:1.5;stroke-opacity:1;stroke:#bfbfbf"
     d="M 246.3 175.7 C 253.39999 172 260.30001 168.49999 272.7 162.6 " />
  <path
     id="path6141"
     style="fill:none;stroke-width:1.5;stroke-opacity:1;stroke:#bfbfbf"
     d="M 247.1 175.4 C 253.59999 172.4 262.40001 167.19999 271.6 161.7 " />
  <path
     id="path6139"
     style="fill:none;stroke-width:1.5;stroke-opacity:1;stroke:#bfbfbf"
     d="M 243 175.4 C 251.59999 171 259.50001 166.39999 273.5 160.4 " />
  <path
     id="path6137"
     style="fill:none;stroke-width:1.5;stroke-opacity:1;stroke:#bfbfbf"
     d="M 242 175.8 C 252.99999 170.50001 264.50001 165.3 273.2 160.4 " />
  <path
     id="path6135"
     style="fill:none;stroke-width:1.5;stroke-opacity:1;stroke:#bfbfbf"
     d="M 239.8 175.1 C 251.79999 169.10001 265.40001 162.1 274.5 157.1 " />
  <path
     id="path6133"
     style="fill:none;stroke-width:1.5;stroke-opacity:1;stroke:#bfbfbf"
     d="M 239 176 C 247.59999 170.20001 256.70002 165.99999 273.7 158.1 " />
  <path
     id="path6131"
     style="fill:none;stroke-width:1.5;stroke-opacity:1;stroke:#bfbfbf"
     d="M 238.2 172.9 L 275.2 154.5 " />
  <path
     id="path6129"
     style="fill:none;stroke-width:1.5;stroke-opacity:1;stroke:#bfbfbf"
     d="M 238.1 173.5 C 251.29999 165.80001 263.70001 159.5 276 155.4 " />
  <path
     id="path6127"
     style="fill:none;stroke-width:1.5;stroke-opacity:1;stroke:#bfbfbf"
     d="M 237.4 171.5 C 246.99999 166.9 255.00002 161.99999 275.7 151.4 " />
  <path
     id="path6125"
     style="fill:none;stroke-width:1.5;stroke-opacity:1;stroke:#bfbfbf"
     d="M 237.8 171.3 C 249.49999 165.70001 263.40001 158.59999 275.5 152.7 " />
  <path
     id="path6123"
     style="fill:none;stroke-width:1.5;stroke-opacity:1;stroke:#bfbfbf"
     d="M 236.2 169.9 A 960.3 960.3 0 0 0 276.2 149.1 " />
  <path
     id="path6121"
     style="fill:none;stroke-width:1.5;stroke-opacity:1;stroke:#bfbfbf"
     d="M 236.8 169.9 C 243.99999 165.3 253.00002 161.09999 275.8 149.9 " />
  <path
     id="path6119"
     style="fill:none;stroke-width:1.5;stroke-opacity:1;stroke:#bfbfbf"
     d="M 235.1 168 C 250.69998 160.30001 265.50001 152 274.8 148.3 " />
  <path
     id="path6117"
     style="fill:none;stroke-width:1.5;stroke-opacity:1;stroke:#bfbfbf"
     d="M 235.6 167.6 C 244.79999 163.6 252.60002 160.09999 275.3 147 " />
  <path
     id="path6115"
     style="fill:none;stroke-width:1.5;stroke-opacity:1;stroke:#bfbfbf"
     d="M 233.4 166.5 C 246.69999 159.70001 260.00001 153.19999 274.1 145.6 " />
  <path
     id="path6113"
     style="fill:none;stroke-width:1.5;stroke-opacity:1;stroke:#bfbfbf"
     d="M 233.9 166.7 C 242.39999 162 251.70002 158.49999 274.8 145.3 " />
  <path
     id="path6111"
     style="fill:none;stroke-width:1.5;stroke-opacity:1;stroke:#bfbfbf"
     d="M 232.5 165.6 C 241.79999 159.80001 250.80002 155.79999 273 144.7 " />
  <path
     id="path6109"
     style="fill:none;stroke-width:1.5;stroke-opacity:1;stroke:#bfbfbf"
     d="M 232 165.1 A 335 335 0 0 0 273.7 144.1 " />
  <path
     id="path6107"
     style="fill:none;stroke-width:1.5;stroke-opacity:1;stroke:#bfbfbf"
     d="M 230.2 163.7 A 891 891 0 0 1 273.2 142.4 " />
  <path
     id="path6105"
     style="fill:none;stroke-width:1.5;stroke-opacity:1;stroke:#bfbfbf"
     d="M 229.8 164 C 242.89999 158.60001 254.50002 150.99999 272.7 141.5 " />
  <path
     id="path6103"
     style="fill:none;stroke-width:1.5;stroke-opacity:1;stroke:#bfbfbf"
     d="M 229.6 162.4 C 245.09998 154.40001 260.60001 146.19999 272.3 139.8 " />
  <path
     id="path6101"
     style="fill:none;stroke-width:1.5;stroke-opacity:1;stroke:#bfbfbf"
     d="M 229.7 161.5 C 245.09998 154.40001 261.00001 147.29999 272.7 141.2 " />
  <path
     id="path6099"
     style="fill:none;stroke-width:1.5;stroke-opacity:1;stroke:#bfbfbf"
     d="M 227.8 160.6 C 240.59999 153.90001 254.30002 147.69999 271.2 138.6 " />
  <path
     id="path6097"
     style="fill:none;stroke-width:1.5;stroke-opacity:1;stroke:#bfbfbf"
     d="M 227.6 161 C 238.59999 155.20001 248.30002 149.59999 272 139.1 " />
  <path
     id="path6095"
     style="fill:none;stroke-width:1.5;stroke-opacity:1;stroke:#bfbfbf"
     d="M 227.8 158.7 C 237.79999 153.50001 247.70002 147.99999 271 137 " />
  <path
     id="path6093"
     style="fill:none;stroke-width:1.5;stroke-opacity:1;stroke:#bfbfbf"
     d="M 227 157.9 C 241.49999 151.60001 256.00002 144.49999 271 137.2 " />
  <path
     id="path6091"
     style="fill:none;stroke-width:1.5;stroke-opacity:1;stroke:#bfbfbf"
     d="M 227.9 156.6 C 239.49999 150.30001 250.60002 144.59999 268.6 135.2 " />
  <path
     id="path6089"
     style="fill:none;stroke-width:1.5;stroke-opacity:1;stroke:#bfbfbf"
     d="M 228.1 156.2 C 236.89999 152.2 245.80002 147.19999 269.7 134.6 " />
  <path
     id="path6087"
     style="fill:none;stroke-width:1.5;stroke-opacity:1;stroke:#bfbfbf"
     d="M 228.9 153 C 240.09999 148 250.50002 141.59999 266.7 133.4 " />
  <path
     id="path6085"
     style="fill:none;stroke-width:1.5;stroke-opacity:1;stroke:#bfbfbf"
     d="M 229 154 C 237.99999 148.80001 249.00002 142.69999 267.4 134.2 " />
  <path
     id="path6083"
     style="fill:none;stroke-width:1.5;stroke-opacity:1;stroke:#bfbfbf"
     d="M 228.5 151.5 A 887.6 887.6 0 0 1 264.2 133.3 " />
  <path
     id="path6081"
     style="fill:none;stroke-width:1.5;stroke-opacity:1;stroke:#bfbfbf"
     d="M 228 151.6 C 237.89999 146.20001 248.40002 142.19999 263.7 132.9 " />
  <path
     id="path6079"
     style="fill:none;stroke-width:1.5;stroke-opacity:1;stroke:#bfbfbf"
     d="M 229 149.4 C 237.99999 144.7 247.00001 140.09999 262 131.6 " />
  <path
     id="path6077"
     style="fill:none;stroke-width:1.5;stroke-opacity:1;stroke:#bfbfbf"
     d="M 228 148 C 238.99999 144.1 248.10001 138.29999 262.8 131.8 " />
  <path
     id="path6075"
     style="fill:none;stroke-width:1.5;stroke-opacity:1;stroke:#bfbfbf"
     d="M 228 146.9 C 238.59999 141.40001 249.00001 136.29999 260.8 130.3 " />
  <path
     id="path6073"
     style="fill:none;stroke-width:1.5;stroke-opacity:1;stroke:#bfbfbf"
     d="M 229.5 147.8 C 238.09999 142.30001 247.70001 136.79999 260.4 130.4 " />
  <path
     id="path6071"
     style="fill:none;stroke-width:1.5;stroke-opacity:1;stroke:#bfbfbf"
     d="M 228.7 144.8 C 236.29999 140.8 244.30001 135.99999 257.5 130.1 " />
  <path
     id="path6069"
     style="fill:none;stroke-width:1.5;stroke-opacity:1;stroke:#bfbfbf"
     d="M 228.9 145.4 C 235.39999 139.80001 244.70001 136.89999 257.7 129.4 " />
  <path
     id="path6067"
     style="fill:none;stroke-width:1.5;stroke-opacity:1;stroke:#bfbfbf"
     d="M 229.7 141.4 C 234.99999 139.6 240.00002 136.69999 256.4 128.4 " />
  <path
     id="path6065"
     style="fill:none;stroke-width:1.5;stroke-opacity:1;stroke:#bfbfbf"
     d="M 230.3 142.7 C 238.29999 137.7 247.30001 131.6 255.2 128.9 " />
  <path
     id="path6063"
     style="fill:none;stroke-width:1.5;stroke-opacity:1;stroke:#bfbfbf"
     d="M 233.2 137.5 C 238.39999 135.3 244.20001 132 253.5 127.5 " />
  <path
     id="path6061"
     style="fill:none;stroke-width:1.5;stroke-opacity:1;stroke:#bfbfbf"
     d="M 232.6 138.9 C 240.89999 133.10001 247.80001 130 253.6 126.9 " />
  <path
     id="path6059"
     style="fill:none;stroke-width:1.5;stroke-opacity:1;stroke:#bfbfbf"
     d="M 235.6 134.3 C 239.2 132.1 243.4 130.2 246.6 129 " />
  <path
     id="path6057"
     style="fill:none;stroke-width:1.5;stroke-opacity:1;stroke:#bfbfbf"
     d="M 236 134.1 C 239.3 132.1 242 131.4 246.1 129.3 " />
  <path
     id="path6055"
     style="fill:none;stroke-width:1.5;stroke-opacity:1;stroke:#bfbfbf"
     d="M 250.9 126.5 C 255.89999 126.3 261.9 129.5 266.1 132.9 C 270.3 136.3 274.9 141.70001 276.1 146.8 C 277.3 151.8 276.1 158.8 273.4 163.4 A 28.4 28.4 0 0 1 260 174 A 26 26 0 0 1 243.4 174.5 C 238.4 172.8 232.8 168.1 230 163.6 A 25.5 25.5 0 0 1 226.5 147.3 A 27 27 0 0 1 235.2 133.1 C 239.2 129.6 248.4 127 250.9 126 C 253.3 125 249.9 126.6 249.9 127.2 " />
  <path
     id="path6053"
     style="fill:none;stroke-width:1.5;stroke-opacity:1;stroke:#bfbfbf"
     d="M 255.4 127 C 260.39999 127.6 266.4 131 269.9 135.2 A 29 29 0 0 1 276.2 151.5 C 276.2 156.79999 273.9 163 270.4 167 C 266.9 171 260.39999 174.4 255.2 175.4 C 249.90001 176.4 243.5 175.8 238.9 173.2 A 28 28 0 0 1 227.5 160.2 A 26.7 26.7 0 0 1 238.6 130.5 C 243.2 127.7 252.9 127.2 256 126.9 C 259 126.5 257.2 127.8 257.1 128.3 " />
  <path
     id="path6049"
     style="fill:none;stroke-width:1.5;stroke-opacity:1;stroke:#bfbfbf"
     d="M 0.037027696 424.52671 A 27 27 0 0 1 9.7 428.8 A 26 26 0 0 1 19 442.8 C 20.199999 447.79999 19.199997 454.3 16.6 459.1 A 30.8 30.8 0 0 1 3.9 471.8 C 2.6917809 472.33162 1.3784526 472.72309 0.0079970881 472.98995 " />
  <path
     id="path6043"
     style="fill:none;stroke-width:1.5;stroke-opacity:1;stroke:#bfbfbf"
     d="M 0.22987919 423.91174 C 0.20713992 423.98641 0.10915321 424.07871 -0.0079978739 424.1768 " />
  <path
     id="path6039"
     style="fill:none;stroke-width:1.5;stroke-opacity:1;stroke:#bfbfbf"
     d="M 0.087363711 423.90781 A 28 28 0 0 1 13.5 432.4 A 24 24 0 0 1 18.9 447.9 C 18.9 453.29999 16.399997 460.5 12.9 464.7 A 26.5 26.5 0 0 1 0.072529466 472.79068 " />
  <path
     id="path6035"
     style="fill:none;stroke-width:1.5;stroke-opacity:1;stroke:#bfbfbf"
     d="M 210 349.4 A 28 28 0 0 1 225.7 356.4 C 229.5 360 232.5 365.90001 232.9 371.2 A 31 31 0 0 1 228.2 388.4 C 225.2 392.8 219.79999 396.6 214.7 398 A 28 28 0 0 1 197.8 396.6 A 25.3 25.3 0 0 1 186.1 385.1 A 26.7 26.7 0 0 1 184.7 368.4 C 186 363.30001 190.1 357.4 194.5 354.3 C 198.8 351.2 208.1 350.4 210.8 349.7 C 213.4 348.9 210.6 349.3 210.4 349.7 " />
  <path
     id="path6033"
     style="fill:none;stroke-width:1.5;stroke-opacity:1;stroke:#bfbfbf"
     d="M 207.5 348.7 A 27 27 0 0 1 232.7 369.2 C 233.7 374.39999 233 381.4 230.5 386.2 A 28 28 0 0 1 217.3 397.9 C 212.3 399.9 205 399.6 200.1 397.9 A 25 25 0 0 1 187.9 387.4 A 30.5 30.5 0 0 1 183.9 370.4 C 184.6 365.00001 187.4 358.6 191.4 355.1 C 195.5 351.5 205.4 350.3 208.4 349.4 C 211.4 348.4 209.8 349.1 209.9 349.4 " />
  <path
     id="path6031"
     style="fill:none;stroke-width:1.5;stroke-opacity:1;stroke:#bfbfbf"
     d="M 466 52.6 A 25.3 25.3 0 0 1 491 72.6 C 491.8 77.999995 490.2 85.600005 487.4 90.4 C 484.6 95.299995 479.4 99.900002 474.4 101.8 A 28.3 28.3 0 0 1 456.4 101.4 C 451.40001 99.400002 446.4 94.499995 443.8 89.7 A 28.3 28.3 0 0 1 441 72.7 C 442 67.400005 445.5 61.499996 449.6 58 C 453.7 54.500003 463 52.399999 465.6 51.6 C 468.2 50.700001 464.9 52.4 465 52.9 " />
  <path
     id="path6029"
     style="fill:none;stroke-width:1.5;stroke-opacity:1;stroke:#bfbfbf"
     d="M 459.5 52.3 A 25 25 0 0 1 476.8 54.3 C 481.6 56.899997 486.2 62.800005 488.4 67.8 A 26 26 0 0 1 489.7 84.5 A 30.5 30.5 0 0 1 478.6 98.8 A 25 25 0 0 1 462.4 102 A 28.2 28.2 0 0 1 446.9 94.6 A 26.4 26.4 0 0 1 440.5 78.7 C 440.3 73.200005 442.5 66.199995 445.8 61.7 C 449.2 57.400004 457.9 53.699998 460.4 52.2 C 462.9 50.800001 460.9 52.600001 460.9 53.2 " />
  <path
     id="path6025"
     style="fill:none;stroke-width:1.5;stroke-opacity:1;stroke:#bfbfbf"
     d="M 704.63373 -0.11777437 A 27.9 27.9 0 0 1 705 3 C 705 8.4999945 702.5 15.500004 699 19.7 A 28.6 28.6 0 0 1 683.6 28 C 678.30001 28.999999 672 27.699997 667.5 25.1 A 26 26 0 0 1 656.7 12.3 A 32.6 32.6 0 0 1 655.15673 -0.030399851 " />
  <path
     id="path6019"
     style="fill:none;stroke-width:1.5;stroke-opacity:1;stroke:#bfbfbf"
     d="M 704.39669 -0.05809618 C 704.58214 4.9883507 703.19077 10.918451 701.1 15.1 C 698.6 20.099995 694.1 24.800002 689.2 26.8 A 28 28 0 0 1 672 27.2 A 24.4 24.4 0 0 1 659.5 17 A 30.8 30.8 0 0 1 655.67868 0.001840629 " />
  <path
     id="path6015"
     style="fill:none;stroke-width:1.5;stroke-opacity:1;stroke:#bfbfbf"
     d="M 425.6 276 C 430.5 276.3 437.1 279.4 440.6 283.2 A 27.9 27.9 0 0 1 446.6 299 A 25 25 0 0 1 442.3 314.6 A 29.4 29.4 0 0 1 427.5 324.6 A 25.8 25.8 0 0 1 399.5 309.4 C 397.5 304.4 397.8 296.7 399.4 291.7 C 401 286.7 404.8 282.3 409.1 279.7 C 413.5 277 422.6 276.7 425.5 276 C 428.3 275.4 426.2 275.7 426.4 276 " />
  <path
     id="path6013"
     style="fill:none;stroke-width:1.5;stroke-opacity:1;stroke:#bfbfbf"
     d="M 421.1 275.4 C 426.1 274.9 433.1 277.4 437.4 280.6 C 441.6 283.8 445.6 289.60001 446.8 294.8 C 448 299.89999 447.2 306.6 444.8 311.2 A 26 26 0 0 1 432.5 322.4 C 427.50001 324.4 420.29999 324.8 415.1 323.2 A 26.4 26.4 0 0 1 401.7 313.1 A 28 28 0 0 1 397.7 296.4 C 398.4 291.30001 401.5 285.9 405.6 282.4 C 409.6 278.8 419.2 276.4 422 275.2 C 424.7 274.2 422.4 275.4 422.3 275.8 " />
  <path
     id="path6011"
     style="fill:none;stroke-width:1.5;stroke-opacity:1;stroke:#bfbfbf"
     d="M 631.6 201.8 A 26.4 26.4 0 0 1 649.1 203.2 C 654 205.7 658.7 211.8 660.7 216.8 C 662.7 221.79999 662.7 228.1 660.9 233 C 659.2 237.99999 654.9 243.4 650.4 246.2 A 29.5 29.5 0 0 1 633.2 249.9 A 27.3 27.3 0 0 1 618.2 242.3 A 26.1 26.1 0 0 1 611.2 227.1 A 27.4 27.4 0 0 1 616.2 210.6 C 619.4 206.5 627.9 203.6 630.4 202.2 C 633 200.8 631.1 201.7 631.4 202 " />
  <path
     id="path6009"
     style="fill:none;stroke-width:1.5;stroke-opacity:1;stroke:#bfbfbf"
     d="M 643.1 201.8 A 26 26 0 0 1 657.4 210.9 A 27.5 27.5 0 0 1 661.9 227.4 A 26.9 26.9 0 0 1 655.1 242.9 C 651.4 246.7 645.09999 249.8 639.7 250.4 C 634.30001 251 627.1 249.4 622.5 246.4 A 27 27 0 0 1 612.5 232.5 C 611 227.40001 611.4 220.5 613.5 215.7 A 26 26 0 0 1 625.8 203.7 C 630.8 201.5 640.8 202.4 644.1 202.3 C 647.4 202.3 645.9 203.1 645.7 203.4 " />
  <path
     id="path6005"
     style="fill:none;stroke-width:1.5;stroke-opacity:1;stroke:#bfbfbf"
     d="M 849.9 176.5 C 851.91158 175.64321 853.75665 174.70317 855.84357 173.5713 " />
  <path
     id="path6001"
     style="fill:none;stroke-width:1.5;stroke-opacity:1;stroke:#bfbfbf"
     d="M 850.7 175.8 A 148 148 0 0 0 856.14336 173.32211 " />
  <path
     id="path5997"
     style="fill:none;stroke-width:1.5;stroke-opacity:1;stroke:#bfbfbf"
     d="M 846.3 175.7 C 848.9086 174.34059 851.49021 173.00817 854.32751 171.57381 " />
  <path
     id="path5993"
     style="fill:none;stroke-width:1.5;stroke-opacity:1;stroke:#bfbfbf"
     d="M 847.1 175.4 C 849.67383 174.21208 852.60831 172.6792 855.78544 170.91934 " />
  <path
     id="path5989"
     style="fill:none;stroke-width:1.5;stroke-opacity:1;stroke:#bfbfbf"
     d="M 843 175.4 C 847.22697 173.23737 851.28484 171.02641 855.98101 168.62466 " />
  <path
     id="path5985"
     style="fill:none;stroke-width:1.5;stroke-opacity:1;stroke:#bfbfbf"
     d="M 842 175.8 C 846.67728 173.5464 851.44498 171.31087 856.04937 169.10881 " />
  <path
     id="path5981"
     style="fill:none;stroke-width:1.5;stroke-opacity:1;stroke:#bfbfbf"
     d="M 839.8 175.1 C 845.40203 172.29899 851.35277 169.28003 857.03158 166.34836 " />
  <path
     id="path5977"
     style="fill:none;stroke-width:1.5;stroke-opacity:1;stroke:#bfbfbf"
     d="M 839 176 C 843.88744 172.70382 848.93639 169.92438 855.50507 166.68891 " />
  <path
     id="path5973"
     style="fill:none;stroke-width:1.5;stroke-opacity:1;stroke:#bfbfbf"
     d="M 838.2 172.9 L 856.00039 164.04789 " />
  <path
     id="path5969"
     style="fill:none;stroke-width:1.5;stroke-opacity:1;stroke:#bfbfbf"
     d="M 838.1 173.5 C 844.22542 169.92684 850.17859 166.65514 856.02942 163.76487 " />
  <path
     id="path5965"
     style="fill:none;stroke-width:1.5;stroke-opacity:1;stroke:#bfbfbf"
     d="M 837.4 171.5 C 842.94396 168.84352 847.95434 166.08698 855.18523 162.19037 " />
  <path
     id="path5961"
     style="fill:none;stroke-width:1.5;stroke-opacity:1;stroke:#bfbfbf"
     d="M 837.8 171.3 C 843.44822 168.59658 849.60917 165.54357 855.83279 162.44476 " />
  <path
     id="path5957"
     style="fill:none;stroke-width:1.5;stroke-opacity:1;stroke:#bfbfbf"
     d="M 836.2 169.9 A 960.3 960.3 0 0 0 856.12287 159.83834 " />
  <path
     id="path5953"
     style="fill:none;stroke-width:1.5;stroke-opacity:1;stroke:#bfbfbf"
     d="M 836.8 169.9 C 841.18817 167.09644 846.24498 164.44146 854.68705 160.25979 " />
  <path
     id="path5949"
     style="fill:none;stroke-width:1.5;stroke-opacity:1;stroke:#bfbfbf"
     d="M 835.1 168 C 842.43921 164.37744 849.60137 160.62207 856.09704 157.27538 " />
  <path
     id="path5945"
     style="fill:none;stroke-width:1.5;stroke-opacity:1;stroke:#bfbfbf"
     d="M 835.6 167.6 C 841.23642 165.14938 846.34738 162.88643 854.68113 158.48859 " />
  <path
     id="path5941"
     style="fill:none;stroke-width:1.5;stroke-opacity:1;stroke:#bfbfbf"
     d="M 833.4 166.5 C 840.78524 162.72409 848.17051 159.04066 855.69272 155.21005 " />
  <path
     id="path5937"
     style="fill:none;stroke-width:1.5;stroke-opacity:1;stroke:#bfbfbf"
     d="M 833.9 166.7 C 839.52837 163.58784 845.50753 161.00182 855.61174 155.77736 " />
  <path
     id="path5933"
     style="fill:none;stroke-width:1.5;stroke-opacity:1;stroke:#bfbfbf"
     d="M 832.5 165.6 C 838.64908 161.76509 844.66703 158.71708 854.45607 153.8834 " />
  <path
     id="path5929"
     style="fill:none;stroke-width:1.5;stroke-opacity:1;stroke:#bfbfbf"
     d="M 832 165.1 A 335 335 0 0 0 856.36063 153.72306 " />
  <path
     id="path5925"
     style="fill:none;stroke-width:1.5;stroke-opacity:1;stroke:#bfbfbf"
     d="M 830.2 163.7 A 891 891 0 0 1 855.86344 150.6415 " />
  <path
     id="path5921"
     style="fill:none;stroke-width:1.5;stroke-opacity:1;stroke:#bfbfbf"
     d="M 829.8 164 C 838.21789 160.53003 846.01642 156.15163 855.34478 150.94442 " />
  <path
     id="path5917"
     style="fill:none;stroke-width:1.5;stroke-opacity:1;stroke:#bfbfbf"
     d="M 829.6 162.4 C 839.18304 157.45391 848.76612 152.43136 857.45111 147.80503 " />
  <path
     id="path5913"
     style="fill:none;stroke-width:1.5;stroke-opacity:1;stroke:#bfbfbf"
     d="M 829.7 161.5 C 838.70634 157.34773 847.88371 153.19544 856.29195 149.2432 " />
  <path
     id="path5909"
     style="fill:none;stroke-width:1.5;stroke-opacity:1;stroke:#bfbfbf"
     d="M 827.8 160.6 C 836.41355 156.09134 845.43469 151.80909 855.56424 146.71719 " />
  <path
     id="path5905"
     style="fill:none;stroke-width:1.5;stroke-opacity:1;stroke:#bfbfbf"
     d="M 827.6 161 C 835.33632 156.92085 842.42965 152.94061 854.20245 147.28513 " />
  <path
     id="path5901"
     style="fill:none;stroke-width:1.5;stroke-opacity:1;stroke:#bfbfbf"
     d="M 827.8 158.7 C 834.97922 154.9668 842.10693 151.07897 854.17843 145.11239 " />
  <path
     id="path5897"
     style="fill:none;stroke-width:1.5;stroke-opacity:1;stroke:#bfbfbf"
     d="M 827 157.9 C 836.59856 153.72959 846.19714 149.20861 855.94074 144.51112 " />
  <path
     id="path5893"
     style="fill:none;stroke-width:1.5;stroke-opacity:1;stroke:#bfbfbf"
     d="M 827.9 156.6 C 835.90889 152.25034 843.67947 148.18668 853.64711 142.99386 " />
  <path
     id="path5889"
     style="fill:none;stroke-width:1.5;stroke-opacity:1;stroke:#bfbfbf"
     d="M 828.1 156.2 C 834.62201 153.23545 841.19897 149.7216 853.89657 142.97165 " />
  <path
     id="path5885"
     style="fill:none;stroke-width:1.5;stroke-opacity:1;stroke:#bfbfbf"
     d="M 828.9 153 C 837.21569 149.28764 845.09039 144.80349 855.22544 139.38387 " />
  <path
     id="path5881"
     style="fill:none;stroke-width:1.5;stroke-opacity:1;stroke:#bfbfbf"
     d="M 829 154 C 835.74246 150.10436 843.60744 145.70358 854.86538 140.167 " />
  <path
     id="path5877"
     style="fill:none;stroke-width:1.5;stroke-opacity:1;stroke:#bfbfbf"
     d="M 828.5 151.5 A 887.6 887.6 0 0 1 855.92858 137.33715 " />
  <path
     id="path5873"
     style="fill:none;stroke-width:1.5;stroke-opacity:1;stroke:#bfbfbf"
     d="M 828 151.6 C 836.10909 147.17686 844.62076 143.693 855.8431 137.46643 " />
  <path
     id="path5869"
     style="fill:none;stroke-width:1.5;stroke-opacity:1;stroke:#bfbfbf"
     d="M 829 149.4 C 836.55996 145.45202 844.11995 141.57459 855.23608 135.39694 " />
  <path
     id="path5865"
     style="fill:none;stroke-width:1.5;stroke-opacity:1;stroke:#bfbfbf"
     d="M 828 148 C 837.00916 144.80584 844.74386 140.33718 855.32441 135.2533 " />
  <path
     id="path5861"
     style="fill:none;stroke-width:1.5;stroke-opacity:1;stroke:#bfbfbf"
     d="M 828 146.9 C 837.04854 142.205 845.95136 137.80147 855.70369 132.88078 " />
  <path
     id="path5857"
     style="fill:none;stroke-width:1.5;stroke-opacity:1;stroke:#bfbfbf"
     d="M 829.5 147.8 C 836.98608 143.01239 845.22992 138.22476 855.61659 132.84352 " />
  <path
     id="path5853"
     style="fill:none;stroke-width:1.5;stroke-opacity:1;stroke:#bfbfbf"
     d="M 828.7 144.8 C 835.95459 140.9818 843.57367 136.43464 855.73202 130.89764 " />
  <path
     id="path5849"
     style="fill:none;stroke-width:1.5;stroke-opacity:1;stroke:#bfbfbf"
     d="M 828.9 145.4 C 835.09554 140.06231 843.83494 137.17759 855.89752 130.42436 " />
  <path
     id="path5845"
     style="fill:none;stroke-width:1.5;stroke-opacity:1;stroke:#bfbfbf"
     d="M 829.7 141.4 C 834.93937 139.62059 839.88558 136.7662 855.84163 128.68273 " />
  <path
     id="path5843"
     style="fill:none;stroke-width:1.5;stroke-opacity:1;stroke:#bfbfbf"
     d="M 830.3 142.7 C 838.29999 137.7 847.30001 131.6 855.2 128.9 " />
  <path
     id="path5841"
     style="fill:none;stroke-width:1.5;stroke-opacity:1;stroke:#bfbfbf"
     d="M 833.2 137.5 C 838.39999 135.3 844.20001 132 853.5 127.5 " />
  <path
     id="path5839"
     style="fill:none;stroke-width:1.5;stroke-opacity:1;stroke:#bfbfbf"
     d="M 832.6 138.9 C 840.89999 133.10001 847.80001 130 853.6 126.9 " />
  <path
     id="path5837"
     style="fill:none;stroke-width:1.5;stroke-opacity:1;stroke:#bfbfbf"
     d="M 835.6 134.3 C 839.2 132.1 843.4 130.2 846.6 129 " />
  <path
     id="path5835"
     style="fill:none;stroke-width:1.5;stroke-opacity:1;stroke:#bfbfbf"
     d="M 836 134.1 C 839.3 132.1 842 131.4 846.1 129.3 " />
  <path
     id="path5833"
     style="fill:none;stroke-width:1.5;stroke-opacity:1;stroke:#bfbfbf"
     d="M 856.06631 175.11612 A 26 26 0 0 1 843.4 174.5 C 838.4 172.8 832.8 168.1 830 163.6 A 25.5 25.5 0 0 1 826.5 147.3 A 27 27 0 0 1 835.2 133.1 C 839.2 129.6 848.4 127 850.9 126 C 853.3 125 849.9 126.6 849.9 127.2 " />
  <path
     id="path5829"
     style="fill:none;stroke-width:1.5;stroke-opacity:1;stroke:#bfbfbf"
     d="M 850.9 126.5 C 852.52651 126.43494 854.25884 126.72967 856.00061 127.27404 " />
  <path
     id="path5825"
     style="fill:none;stroke-width:1.5;stroke-opacity:1;stroke:#bfbfbf"
     d="M 855.97479 175.23557 C 855.71373 175.29602 855.4553 175.3509 855.2 175.4 C 849.90001 176.4 843.5 175.8 838.9 173.2 A 28 28 0 0 1 827.5 160.2 A 26.7 26.7 0 0 1 838.6 130.5 C 843.2 127.7 852.9 127.2 856 126.9 " />
  <path
     id="path5819"
     style="fill:none;stroke-width:1.5;stroke-opacity:1;stroke:#bfbfbf"
     d="M 360.82614 539.81006 C 360.46581 539.44023 360.1231 539.06926 359.8 538.7 A 25 25 0 0 1 353.8 523.4 C 353.8 518.20001 356.6 511.7 360.2 507.4 C 363.9 503.3 373.2 499.8 375.7 498.3 C 378.3 496.8 375.7 498.3 375.7 498.7 " />
  <path
     id="path5815"
     style="fill:none;stroke-width:1.5;stroke-opacity:1;stroke:#bfbfbf"
     d="M 374.6 498.7 A 28 28 0 0 1 391.9 501.5 C 396.7 504.1 401.4 509.50001 403.3 514.5 A 24.3 24.3 0 0 1 397.87351 539.84573 " />
  <path
     id="path5813"
     style="fill:none;stroke-width:1.5;stroke-opacity:1;stroke:#bfbfbf"
     d="M 361.19396 540.03196 A 27.1 27.1 0 0 1 359.3 538.1 C 356 533.8 354.3 526.49999 354.6 521.1 C 354.9 515.70001 357.2 509.7 361.1 505.7 C 365 501.7 374.9 498.7 377.9 497.4 C 380.9 496.1 378.8 497.4 378.9 497.9 " />
  <path
     id="path5809"
     style="fill:none;stroke-width:1.5;stroke-opacity:1;stroke:#bfbfbf"
     d="M 377 497.6 C 382.09999 496.6 389.4 499.3 394 502.2 C 398.6 505.2 403 510.20001 404.5 515.3 C 406 520.39999 405.5 527.8 403.2 532.7 C 402.07596 535.20355 400.27318 537.68101 398.12512 539.81225 " />
  <path
     id="path5807"
     style="fill:none;stroke-width:1.5;stroke-opacity:1;stroke:#bfbfbf"
     d="M 595.4 473.9 C 600.69999 471.2 606.00001 468.3 613.3 464.7 " />
  <path
     id="path5805"
     style="fill:none;stroke-width:1.5;stroke-opacity:1;stroke:#bfbfbf"
     d="M 596 474 A 60 60 0 0 1 613.5 463.9 " />
  <path
     id="path5803"
     style="fill:none;stroke-width:1.5;stroke-opacity:1;stroke:#bfbfbf"
     d="M 591.4 473.6 C 599.59999 468.9 606.80001 465.7 614.5 461.7 " />
  <path
     id="path5801"
     style="fill:none;stroke-width:1.5;stroke-opacity:1;stroke:#bfbfbf"
     d="M 591.7 472.3 C 597.39999 469.6 603.40001 466 614.2 461.4 " />
  <path
     id="path5799"
     style="fill:none;stroke-width:1.5;stroke-opacity:1;stroke:#bfbfbf"
     d="M 589 472.7 C 595.79999 469.3 601.30001 465.89999 614.9 459.5 " />
  <path
     id="path5797"
     style="fill:none;stroke-width:1.5;stroke-opacity:1;stroke:#bfbfbf"
     d="M 589.3 472.5 C 598.49999 467.5 607.90001 461.3 614.5 459.9 " />
  <path
     id="path5795"
     style="fill:none;stroke-width:1.5;stroke-opacity:1;stroke:#bfbfbf"
     d="M 585.7 472.2 C 596.49999 466.60001 607.70001 460.7 615.7 456.1 " />
  <path
     id="path5793"
     style="fill:none;stroke-width:1.5;stroke-opacity:1;stroke:#bfbfbf"
     d="M 586.3 471.3 C 595.49999 467.7 604.00001 461.99999 616.5 456 " />
  <path
     id="path5791"
     style="fill:none;stroke-width:1.5;stroke-opacity:1;stroke:#bfbfbf"
     d="M 582 471.3 C 590.99999 466.20001 600.90002 461.49999 616.3 453.3 " />
  <path
     id="path5789"
     style="fill:none;stroke-width:1.5;stroke-opacity:1;stroke:#bfbfbf"
     d="M 582.8 471.8 C 590.99999 467 599.60002 463.49999 617.6 454.5 " />
  <path
     id="path5787"
     style="fill:none;stroke-width:1.5;stroke-opacity:1;stroke:#bfbfbf"
     d="M 581 469.5 C 589.49999 465.5 598.20002 461.49999 618 451.2 " />
  <path
     id="path5785"
     style="fill:none;stroke-width:1.5;stroke-opacity:1;stroke:#bfbfbf"
     d="M 581.3 469.3 C 595.49999 462.30001 608.30001 456.29999 617 450.3 " />
  <path
     id="path5783"
     style="fill:none;stroke-width:1.5;stroke-opacity:1;stroke:#bfbfbf"
     d="M 580.1 467.8 C 589.39999 463.1 597.90002 458.79999 619.1 447.4 " />
  <path
     id="path5781"
     style="fill:none;stroke-width:1.5;stroke-opacity:1;stroke:#bfbfbf"
     d="M 580 468.5 C 591.09999 461.80001 602.20002 457.69999 619.1 447 " />
  <path
     id="path5779"
     style="fill:none;stroke-width:1.5;stroke-opacity:1;stroke:#bfbfbf"
     d="M 578.2 467 A 877.6 877.6 0 0 1 618.7 446.4 " />
  <path
     id="path5777"
     style="fill:none;stroke-width:1.5;stroke-opacity:1;stroke:#bfbfbf"
     d="M 578 465.7 L 618 446.5 " />
  <path
     id="path5775"
     style="fill:none;stroke-width:1.5;stroke-opacity:1;stroke:#bfbfbf"
     d="M 577.4 464.7 L 617 444 " />
  <path
     id="path5773"
     style="fill:none;stroke-width:1.5;stroke-opacity:1;stroke:#bfbfbf"
     d="M 576.7 464.2 C 589.99999 457.70001 602.60001 452.99999 617 444 " />
  <path
     id="path5771"
     style="fill:none;stroke-width:1.5;stroke-opacity:1;stroke:#bfbfbf"
     d="M 576 462.9 A 1766 1766 0 0 0 617 442.9 " />
  <path
     id="path5769"
     style="fill:none;stroke-width:1.5;stroke-opacity:1;stroke:#bfbfbf"
     d="M 575.6 462.8 C 587.09999 456.90001 601.30002 450.79999 617.2 442.8 " />
  <path
     id="path5767"
     style="fill:none;stroke-width:1.5;stroke-opacity:1;stroke:#bfbfbf"
     d="M 574.6 462 C 584.39999 457 593.80002 451.79999 617 440.5 " />
  <path
     id="path5765"
     style="fill:none;stroke-width:1.5;stroke-opacity:1;stroke:#bfbfbf"
     d="M 574.2 462.2 C 588.49999 454.80001 601.80002 448.29999 616.9 440.1 " />
  <path
     id="path5763"
     style="fill:none;stroke-width:1.5;stroke-opacity:1;stroke:#bfbfbf"
     d="M 573.2 460.6 C 589.29998 451.60001 606.30001 443.59999 615.5 438.2 " />
  <path
     id="path5761"
     style="fill:none;stroke-width:1.5;stroke-opacity:1;stroke:#bfbfbf"
     d="M 572.6 459.9 C 583.59999 454.30001 595.60002 449.59999 616.4 438.9 " />
  <path
     id="path5759"
     style="fill:none;stroke-width:1.5;stroke-opacity:1;stroke:#bfbfbf"
     d="M 571.6 458.6 C 582.59999 452.60001 593.80002 447.09999 614.6 436.6 " />
  <path
     id="path5757"
     style="fill:none;stroke-width:1.5;stroke-opacity:1;stroke:#bfbfbf"
     d="M 571.5 459 C 588.69998 449.00001 605.50001 441.79999 615.3 436.2 " />
  <path
     id="path5755"
     style="fill:none;stroke-width:1.5;stroke-opacity:1;stroke:#bfbfbf"
     d="M 571.3 457 C 583.49999 450.30001 596.90002 443.99999 615.3 434.4 " />
  <path
     id="path5753"
     style="fill:none;stroke-width:1.5;stroke-opacity:1;stroke:#bfbfbf"
     d="M 571.9 456 C 581.09999 451.7 589.80003 447.49999 615.3 434.6 " />
  <path
     id="path5751"
     style="fill:none;stroke-width:1.5;stroke-opacity:1;stroke:#bfbfbf"
     d="M 571.6 454.6 C 585.59999 446.80001 600.30001 439.39999 614 433 " />
  <path
     id="path5749"
     style="fill:none;stroke-width:1.5;stroke-opacity:1;stroke:#bfbfbf"
     d="M 571.8 455.2 C 583.89999 446.50001 597.50002 441.19999 613.6 432.9 " />
  <path
     id="path5747"
     style="fill:none;stroke-width:1.5;stroke-opacity:1;stroke:#bfbfbf"
     d="M 571.2 452.4 C 580.29999 447.8 589.00002 443.39999 610.8 431.6 " />
  <path
     id="path5745"
     style="fill:none;stroke-width:1.5;stroke-opacity:1;stroke:#bfbfbf"
     d="M 571.4 451.8 C 579.59999 448.2 590.00002 442.79999 611.8 431.1 " />
  <path
     id="path5743"
     style="fill:none;stroke-width:1.5;stroke-opacity:1;stroke:#bfbfbf"
     d="M 571.5 450 C 586.79998 442.20001 601.50001 434.2 609 430.7 " />
  <path
     id="path5741"
     style="fill:none;stroke-width:1.5;stroke-opacity:1;stroke:#bfbfbf"
     d="M 571.7 450.4 A 220.4 220.4 0 0 1 610 431 " />
  <path
     id="path5739"
     style="fill:none;stroke-width:1.5;stroke-opacity:1;stroke:#bfbfbf"
     d="M 571.5 447.3 C 584.29999 440.80001 597.90001 433.5 606.5 429.4 " />
  <path
     id="path5737"
     style="fill:none;stroke-width:1.5;stroke-opacity:1;stroke:#bfbfbf"
     d="M 570.2 448.3 C 583.39999 440.40001 596.70001 434.09999 607.4 428.9 " />
  <path
     id="path5735"
     style="fill:none;stroke-width:1.5;stroke-opacity:1;stroke:#bfbfbf"
     d="M 571.2 445.7 L 604.8 427.9 " />
  <path
     id="path5733"
     style="fill:none;stroke-width:1.5;stroke-opacity:1;stroke:#bfbfbf"
     d="M 570.9 444.6 C 581.19999 440.4 590.20001 436.19999 604.6 427.7 " />
  <path
     id="path5731"
     style="fill:none;stroke-width:1.5;stroke-opacity:1;stroke:#bfbfbf"
     d="M 571.3 443.4 C 581.09999 437.90001 590.60001 433.39999 602.9 427 " />
  <path
     id="path5729"
     style="fill:none;stroke-width:1.5;stroke-opacity:1;stroke:#bfbfbf"
     d="M 570.7 442.6 C 579.29999 438.9 587.30002 436.19999 603.7 427.1 " />
  <path
     id="path5727"
     style="fill:none;stroke-width:1.5;stroke-opacity:1;stroke:#bfbfbf"
     d="M 571 441.4 C 578.59999 437.1 586.30001 433.59999 600.6 426.1 " />
  <path
     id="path5725"
     style="fill:none;stroke-width:1.5;stroke-opacity:1;stroke:#bfbfbf"
     d="M 572 440.6 C 578.29999 438.4 584.00002 435.29999 601.4 425.4 " />
  <path
     id="path5723"
     style="fill:none;stroke-width:1.5;stroke-opacity:1;stroke:#bfbfbf"
     d="M 571.9 438 C 579.89999 434.4 587.50001 429.99999 598.7 424.7 " />
  <path
     id="path5721"
     style="fill:none;stroke-width:1.5;stroke-opacity:1;stroke:#bfbfbf"
     d="M 571.5 437.9 C 581.59999 432.50001 590.80001 427.5 599.5 425.6 " />
  <path
     id="path5719"
     style="fill:none;stroke-width:1.5;stroke-opacity:1;stroke:#bfbfbf"
     d="M 574.8 435.2 A 371 371 0 0 1 596.3 424.2 " />
  <path
     id="path5717"
     style="fill:none;stroke-width:1.5;stroke-opacity:1;stroke:#bfbfbf"
     d="M 573.9 434.2 C 581.39999 431.4 588.30001 427.2 595.6 423.9 " />
  <path
     id="path5715"
     style="fill:none;stroke-width:1.5;stroke-opacity:1;stroke:#bfbfbf"
     d="M 578 430.7 C 580.2 429.4 582.30001 428.6 588.9 425.2 " />
  <path
     id="path5713"
     style="fill:none;stroke-width:1.5;stroke-opacity:1;stroke:#bfbfbf"
     d="M 578.2 431.1 C 582 428.8 586.5 427 588.9 425.1 " />
  <path
     id="path5711"
     style="fill:none;stroke-width:1.5;stroke-opacity:1;stroke:#bfbfbf"
     d="M 593.1 423.9 A 27 27 0 0 1 609.7 428.8 A 26 26 0 0 1 619 442.8 C 620.2 447.79999 619.2 454.3 616.6 459.1 A 30.8 30.8 0 0 1 603.9 471.8 C 598.9 474 592.09999 473.8 586.9 472.3 A 26 26 0 0 1 572.9 462.8 A 29.5 29.5 0 0 1 569.9 445.1 C 570.6 439.70001 573.4 433.6 577.3 430 C 581.3 426.4 590.7 424.8 593.3 423.8 C 596 422.8 593.3 423.5 593.2 424 " />
  <path
     id="path5709"
     style="fill:none;stroke-width:1.5;stroke-opacity:1;stroke:#bfbfbf"
     d="M 598 423.4 A 28 28 0 0 1 613.5 432.4 A 24 24 0 0 1 618.9 447.9 C 618.9 453.29999 616.4 460.5 612.9 464.7 A 26.5 26.5 0 0 1 598.4 473.2 A 25 25 0 0 1 581.9 470.4 A 30.4 30.4 0 0 1 570.7 456.7 C 568.7 451.7 568.3 445.2 570.1 440.2 A 30 30 0 0 1 581.7 426.6 C 586.5 423.9 595.7 424.1 598.7 423.8 C 601.6 423.5 599.5 424.3 599.5 424.7 " />
  <path
     id="path5707"
     style="fill:none;stroke-width:1.5;stroke-opacity:1;stroke:#bfbfbf"
     d="M 809.9 399.7 A 833 833 0 0 0 825.4 391.4 " />
  <path
     id="path5705"
     style="fill:none;stroke-width:1.5;stroke-opacity:1;stroke:#bfbfbf"
     d="M 810.4 400 C 813 397.5 816.10001 396.5 824.7 392.4 " />
  <path
     id="path5703"
     style="fill:none;stroke-width:1.5;stroke-opacity:1;stroke:#bfbfbf"
     d="M 805.4 399.9 C 814.19999 395.1 822.60001 391.1 831 386.6 " />
  <path
     id="path5701"
     style="fill:none;stroke-width:1.5;stroke-opacity:1;stroke:#bfbfbf"
     d="M 805.5 399.7 C 813.99999 394.9 823.10001 390.7 830.4 385.9 " />
  <path
     id="path5699"
     style="fill:none;stroke-width:1.5;stroke-opacity:1;stroke:#bfbfbf"
     d="M 801.5 399.7 C 810.29999 394.7 819.60001 390.49999 831.3 384.5 " />
  <path
     id="path5697"
     style="fill:none;stroke-width:1.5;stroke-opacity:1;stroke:#bfbfbf"
     d="M 800.5 400.4 C 809.49999 395.00001 818.80001 388.99999 831 383.3 " />
  <path
     id="path5695"
     style="fill:none;stroke-width:1.5;stroke-opacity:1;stroke:#bfbfbf"
     d="M 799.6 398.2 C 811.59999 392.40001 822.80001 386.3 831.8 382.1 " />
  <path
     id="path5693"
     style="fill:none;stroke-width:1.5;stroke-opacity:1;stroke:#bfbfbf"
     d="M 798.4 399.1 A 330.5 330.5 0 0 1 832.4 382.4 " />
  <path
     id="path5691"
     style="fill:none;stroke-width:1.5;stroke-opacity:1;stroke:#bfbfbf"
     d="M 798.6 396.6 A 295 295 0 0 1 831.8 379.6 " />
  <path
     id="path5689"
     style="fill:none;stroke-width:1.5;stroke-opacity:1;stroke:#bfbfbf"
     d="M 799 395.8 C 806.69999 391.4 815.50002 387.49999 832 379.4 " />
  <path
     id="path5687"
     style="fill:none;stroke-width:1.5;stroke-opacity:1;stroke:#bfbfbf"
     d="M 796.7 395.5 C 809.39999 388.50001 822.00001 381.5 832 376.5 " />
  <path
     id="path5685"
     style="fill:none;stroke-width:1.5;stroke-opacity:1;stroke:#bfbfbf"
     d="M 796.8 394 C 808.59999 389.3 819.30001 383.69999 832.8 377.6 " />
  <path
     id="path5683"
     style="fill:none;stroke-width:1.5;stroke-opacity:1;stroke:#bfbfbf"
     d="M 794.5 394.3 C 806.19999 388.20001 817.10002 382.09999 832.2 374.3 " />
  <path
     id="path5681"
     style="fill:none;stroke-width:1.5;stroke-opacity:1;stroke:#bfbfbf"
     d="M 794.7 393.4 C 804.19999 389.2 814.00002 383.19999 832.7 375.4 " />
  <path
     id="path5679"
     style="fill:none;stroke-width:1.5;stroke-opacity:1;stroke:#bfbfbf"
     d="M 792.7 392.8 C 807.19999 384.90001 822.10001 377.99999 832.7 372.6 " />
  <path
     id="path5677"
     style="fill:none;stroke-width:1.5;stroke-opacity:1;stroke:#bfbfbf"
     d="M 793.5 392 C 806.79999 386.50001 819.70001 378.49999 832.4 373 " />
  <path
     id="path5675"
     style="fill:none;stroke-width:1.5;stroke-opacity:1;stroke:#bfbfbf"
     d="M 791.1 390.9 C 807.49998 383.30001 822.30001 374.7 832.8 369.7 " />
  <path
     id="path5673"
     style="fill:none;stroke-width:1.5;stroke-opacity:1;stroke:#bfbfbf"
     d="M 792.2 392 A 261.2 261.2 0 0 1 833.1 369.5 " />
  <path
     id="path5671"
     style="fill:none;stroke-width:1.5;stroke-opacity:1;stroke:#bfbfbf"
     d="M 789.5 390 C 801.29999 383.50001 812.90002 377.79999 832.4 368.2 " />
  <path
     id="path5669"
     style="fill:none;stroke-width:1.5;stroke-opacity:1;stroke:#bfbfbf"
     d="M 789.2 390.6 C 800.39999 383.60001 813.00002 378.59999 831.9 368.2 " />
  <path
     id="path5667"
     style="fill:none;stroke-width:1.5;stroke-opacity:1;stroke:#bfbfbf"
     d="M 788.2 387.7 C 799.19999 381.80001 811.40002 376.39999 830.2 366.7 " />
  <path
     id="path5665"
     style="fill:none;stroke-width:1.5;stroke-opacity:1;stroke:#bfbfbf"
     d="M 787.6 387.3 C 805.59998 379.30001 822.10001 370.6 831.2 367.5 " />
  <path
     id="path5663"
     style="fill:none;stroke-width:1.5;stroke-opacity:1;stroke:#bfbfbf"
     d="M 787.5 386.3 C 800.89999 378.90001 815.20001 372.39999 829 365.1 " />
  <path
     id="path5661"
     style="fill:none;stroke-width:1.5;stroke-opacity:1;stroke:#bfbfbf"
     d="M 787 385.9 C 800.99999 379.70001 812.40002 373.99999 829.5 364.3 " />
  <path
     id="path5659"
     style="fill:none;stroke-width:1.5;stroke-opacity:1;stroke:#bfbfbf"
     d="M 788 383.8 C 798.99999 377.40001 811.40002 372.19999 828.9 363.1 " />
  <path
     id="path5657"
     style="fill:none;stroke-width:1.5;stroke-opacity:1;stroke:#bfbfbf"
     d="M 786.8 384.8 C 803.09998 375.80001 819.40001 367.8 828.8 362.8 " />
  <path
     id="path5655"
     style="fill:none;stroke-width:1.5;stroke-opacity:1;stroke:#bfbfbf"
     d="M 786.4 382 C 794.99999 377.6 803.30002 373.09999 827.8 361 " />
  <path
     id="path5653"
     style="fill:none;stroke-width:1.5;stroke-opacity:1;stroke:#bfbfbf"
     d="M 785.9 382.3 C 797.89999 376.30001 807.00002 370.89999 827.6 360.7 " />
  <path
     id="path5651"
     style="fill:none;stroke-width:1.5;stroke-opacity:1;stroke:#bfbfbf"
     d="M 787.2 379.5 C 795.49999 375.8 804.60002 370.89999 827.1 359.7 " />
  <path
     id="path5649"
     style="fill:none;stroke-width:1.5;stroke-opacity:1;stroke:#bfbfbf"
     d="M 787.7 380.4 A 839.6 839.6 0 0 1 826.5 359.4 " />
  <path
     id="path5647"
     style="fill:none;stroke-width:1.5;stroke-opacity:1;stroke:#bfbfbf"
     d="M 785.7 378 C 800.09999 371.30001 813.90001 363.99999 826.1 358.2 " />
  <path
     id="path5645"
     style="fill:none;stroke-width:1.5;stroke-opacity:1;stroke:#bfbfbf"
     d="M 786.2 378.2 C 795.99999 371.70001 808.20002 367.59999 826.7 357.4 " />
  <path
     id="path5643"
     style="fill:none;stroke-width:1.5;stroke-opacity:1;stroke:#bfbfbf"
     d="M 785.4 376.2 C 797.19999 370.20001 807.40002 364.49999 823.8 356.2 " />
  <path
     id="path5641"
     style="fill:none;stroke-width:1.5;stroke-opacity:1;stroke:#bfbfbf"
     d="M 786.2 376 C 793.59999 372.6 801.70002 368.29999 824.5 356.5 " />
  <path
     id="path5639"
     style="fill:none;stroke-width:1.5;stroke-opacity:1;stroke:#bfbfbf"
     d="M 785.3 374 C 794.29999 368.80001 803.30002 364.99999 822.4 354.4 " />
  <path
     id="path5637"
     style="fill:none;stroke-width:1.5;stroke-opacity:1;stroke:#bfbfbf"
     d="M 785.6 373.1 C 797.29999 368.3 810.40001 360.39999 822.9 354.8 " />
  <path
     id="path5635"
     style="fill:none;stroke-width:1.5;stroke-opacity:1;stroke:#bfbfbf"
     d="M 785.3 371.6 C 797.99999 365.20001 810.60001 358.3 821 354.1 " />
  <path
     id="path5633"
     style="fill:none;stroke-width:1.5;stroke-opacity:1;stroke:#bfbfbf"
     d="M 785.2 371 C 794.99999 366 804.90002 361.69999 820.3 353 " />
  <path
     id="path5631"
     style="fill:none;stroke-width:1.5;stroke-opacity:1;stroke:#bfbfbf"
     d="M 784.3 370.4 C 794.79999 364.50001 805.60001 358.99999 817.8 352.7 " />
  <path
     id="path5629"
     style="fill:none;stroke-width:1.5;stroke-opacity:1;stroke:#bfbfbf"
     d="M 783.3 371 C 797.09999 363.10001 808.70001 358.2 817.6 353.4 " />
  <path
     id="path5627"
     style="fill:none;stroke-width:1.5;stroke-opacity:1;stroke:#bfbfbf"
     d="M 786 366.4 C 795.99999 361.40001 806.20001 356.6 815.6 351.7 " />
  <path
     id="path5625"
     style="fill:none;stroke-width:1.5;stroke-opacity:1;stroke:#bfbfbf"
     d="M 785.3 367.7 C 794.29999 363.4 801.80001 358.59999 816.2 352.4 " />
  <path
     id="path5623"
     style="fill:none;stroke-width:1.5;stroke-opacity:1;stroke:#bfbfbf"
     d="M 787.8 363.8 L 812.1 350.6 " />
  <path
     id="path5621"
     style="fill:none;stroke-width:1.5;stroke-opacity:1;stroke:#bfbfbf"
     d="M 787.6 364.3 C 794.99999 361.1 801.50001 357.29999 811.7 351 " />
  <path
     id="path5619"
     style="fill:none;stroke-width:1.5;stroke-opacity:1;stroke:#bfbfbf"
     d="M 788.9 360.8 C 793.7 358.3 798.80001 355.39999 809.9 350.1 " />
  <path
     id="path5617"
     style="fill:none;stroke-width:1.5;stroke-opacity:1;stroke:#bfbfbf"
     d="M 788.5 361.7 C 792.9 358.7 796.70001 356.69999 809.3 349.8 " />
  <path
     id="path5615"
     style="fill:none;stroke-width:1.5;stroke-opacity:1;stroke:#bfbfbf"
     d="M 790.2 357.8 C 795.19999 355.1 800.60001 352.8 808.2 348.7 " />
  <path
     id="path5613"
     style="fill:none;stroke-width:1.5;stroke-opacity:1;stroke:#bfbfbf"
     d="M 790.4 357.2 C 795.69999 356 801.40001 353.3 808.5 349.7 " />
  <path
     id="path5611"
     style="fill:none;stroke-width:1.5;stroke-opacity:1;stroke:#bfbfbf"
     d="M 810 349.4 A 28 28 0 0 1 825.7 356.4 C 829.5 360 832.5 365.90001 832.9 371.2 A 31 31 0 0 1 828.2 388.4 C 825.2 392.8 819.79999 396.6 814.7 398 A 28 28 0 0 1 797.8 396.6 A 25.3 25.3 0 0 1 786.1 385.1 A 26.7 26.7 0 0 1 784.7 368.4 C 786 363.30001 790.1 357.4 794.5 354.3 C 798.8 351.2 808.1 350.4 810.8 349.7 C 813.4 348.9 810.6 349.3 810.4 349.7 " />
  <path
     id="path5609"
     style="fill:none;stroke-width:1.5;stroke-opacity:1;stroke:#bfbfbf"
     d="M 807.5 348.7 A 27 27 0 0 1 832.7 369.2 C 833.7 374.39999 833 381.4 830.5 386.2 A 28 28 0 0 1 817.3 397.9 C 812.3 399.9 805 399.6 800.1 397.9 A 25 25 0 0 1 787.9 387.4 A 30.5 30.5 0 0 1 783.9 370.4 C 784.6 365.00001 787.4 358.6 791.4 355.1 C 795.5 351.5 805.4 350.3 808.4 349.4 C 811.4 348.4 809.8 349.1 809.9 349.4 " />
</svg>
